<?xml version="1.0" standalone="no"?>
<!DOCTYPE svg PUBLIC "-//W3C//DTD SVG 20010904//EN"
 "http://www.w3.org/TR/2001/REC-SVG-20010904/DTD/svg10.dtd">
<svg version="1.0" xmlns="http://www.w3.org/2000/svg"
 width="720.000000pt" height="720.000000pt" viewBox="0 0 720.000000 720.000000"
 preserveAspectRatio="xMidYMid meet">

<g transform="translate(0.000000,720.000000) scale(0.100000,-0.100000)"
fill="#000000" stroke="none">
<path d="M3552 4767 l-22 -23 0 -537 0 -537 -540 0 -541 0 -24 -25 c-30 -30
-31 -54 -4 -89 l20 -26 545 0 544 0 0 -539 c0 -509 1 -540 18 -562 26 -31 78
-31 104 0 17 22 18 53 18 562 l0 539 544 0 545 0 20 26 c27 35 26 59 -4 89
l-24 25 -541 0 -540 0 0 538 c0 470 -2 540 -16 560 -21 30 -73 30 -102 -1z"/>
</g>
</svg>
